<?xml version="1.0" encoding="UTF-8"?>
<svg width="24" height="24" viewBox="0 0 24 24" fill="none" xmlns="http://www.w3.org/2000/svg">
  <!-- Map Pin Icon -->
  <g id="map-pin">
    <path d="M12 2C8.13 2 5 5.13 5 9c0 5.25 7 13 7 13s7-7.75 7-13c0-3.87-3.13-7-7-7zm0 9.5c-1.38 0-2.5-1.12-2.5-2.5s1.12-2.5 2.5-2.5 2.5 1.12 2.5 2.5-1.12 2.5-2.5 2.5z" fill="currentColor"/>
  </g>

  <!-- Comments Icon -->
  <g id="comments">
    <path d="M21 6h-2v9H6v2c0 .55.45 1 1 1h11l4 4V7c0-.55-.45-1-1-1zm-4 6H3c-.55 0-1-.45-1-1V3c0-.55.45-1 1-1h14c.55 0 1 .45 1 1v8c0 .55-.45 1-1 1z" fill="currentColor"/>
  </g>

  <!-- Feedback Icon -->
  <g id="feedback">
    <path d="M20 2H4c-1.1 0-1.99.9-1.99 2L2 22l4-4h14c1.1 0 2-.9 2-2V4c0-1.1-.9-2-2-2zm-7 12h-2v-2h2v2zm0-4h-2V6h2v4z" fill="currentColor"/>
  </g>

  <!-- Info Circle Icon -->
  <g id="info-circle">
    <path d="M12 2C6.48 2 2 6.48 2 12s4.48 10 10 10 10-4.48 10-10S17.52 2 12 2zm1 15h-2v-6h2v6zm0-8h-2V7h2v2z" fill="currentColor"/>
  </g>

  <!-- Shopping Bag Icon (完善) -->
  <g id="shopping-bag-enhanced">
    <path d="M18 6h-2c0-2.21-1.79-4-4-4S8 3.79 8 6H6c-1.1 0-2 .9-2 2v10c0 1.1.9 2 2 2h12c1.1 0 2-.9 2-2V8c0-1.1-.9-2-2-2zm-6 0c1.1 0 2 .9 2 2h-4c0-1.1.9-2 2-2z" fill="currentColor"/>
  </g>

  <!-- Credit Card Icon (完善) -->
  <g id="credit-card-enhanced">
    <path d="M20 4H4c-1.11 0-1.99.89-1.99 2L2 18c0 1.11.89 2 2 2h16c1.11 0 2-.89 2-2V6c0-1.11-.89-2-2-2zm0 14H4v-6h16v6zm0-10H4V6h16v2z" fill="currentColor"/>
  </g>

  <!-- Truck Icon (完善) -->
  <g id="truck-enhanced">
    <path d="M16 1H4C2.9 1 2 1.9 2 3v14c0 1.1.9 2 2 2h12c1.1 0 2-.9 2-2V3c0-1.1-.9-2-2-2zm-8 14c-.55 0-1-.45-1-1s.45-1 1-1 1 .45 1 1-.45 1-1 1zm8 0h-6V5h6v10zm4-9h-2v2h2v2h-2v4c0 1.1.89 2 2 2h2v-2h-2v-6z" fill="currentColor"/>
  </g>
</svg>