<svg width="24" height="24" viewBox="0 0 24 24" fill="none" xmlns="http://www.w3.org/2000/svg">
  <!-- 代表多个订单的文档堆叠图标 -->
  <path d="M4 2C3.45 2 3 2.45 3 3v7c0 .55.45 1 1 1h7c.55 0 1-.45 1-1V3c0-.55-.45-1-1-1H4zm0 9c0 .55.45 1 1 1h7c.55 0 1-.45 1-1v-1c0 .55-.45 1-1 1H5c-.55 0-1-.45-1-1v1zm1 3c-.55 0-1 .45-1 1v5c0 .55.45 1 1 1h5c.55 0 1-.45 1-1v-5c0-.55-.45-1-1-1H5zm7 0c-.55 0-1 .45-1 1v5c0 .55.45 1 1 1h5c.55 0 1-.45 1-1v-5c0-.55-.45-1-1-1h-5z" fill="#1890ff" stroke="#1890ff" stroke-width="0.5" stroke-linejoin="round"/>
  <!-- 添加细节线条 -->
  <path d="M5 4h5M5 6h5M5 8h3M6 16h3M6 18h2M13 16h3M13 18h2" stroke="white" stroke-width="0.8" stroke-linecap="round"/>
</svg>
