<svg width="24" height="24" viewBox="0 0 24 24" fill="none" xmlns="http://www.w3.org/2000/svg">
  <!-- 简单的摩托车图标 -->
  <!-- 后轮 -->
  <circle cx="7" cy="18" r="2" fill="none" stroke="#1890ff" stroke-width="1.5"/>
  <circle cx="7" cy="18" r="1" fill="none" stroke="#1890ff" stroke-width="1"/>

  <!-- 前轮 -->
  <circle cx="17" cy="18" r="2" fill="none" stroke="#1890ff" stroke-width="1.5"/>
  <circle cx="17" cy="18" r="1" fill="none" stroke="#1890ff" stroke-width="1"/>

  <!-- 车身主体 -->
  <path d="M5 16c0-1 1-2 2-2h6l3 2h4c1 0 2 1 2 2v2" fill="none" stroke="#1890ff" stroke-width="1.5" stroke-linejoin="round"/>

  <!-- 把手 -->
  <path d="M16 14l2-2" stroke="#1890ff" stroke-width="1.5" stroke-linecap="round"/>

  <!-- 油箱 -->
  <path d="M7 13c0-1 0-1 1-1h4l1 1v2c0 1 0 1-1 1H8c-1 0-1 0-1-1z" fill="#1890ff" stroke="#1890ff" stroke-width="1"/>

  <!-- 座椅 -->
  <path d="M10 11h4l1 1h-6z" fill="#1373cc" stroke="#1890ff" stroke-width="0.5"/>

  <!-- 骑手简化版 -->
  <circle cx="12" cy="8" r="1.5" fill="#FF6B35" stroke="#1890ff" stroke-width="0.8"/>
  <ellipse cx="12" cy="11" rx="1" ry="1.5" fill="#1890ff"/>

  <!-- 运动线 -->
  <path d="M2 10L1 10M2 12L0 12M2 14L1 14" stroke="#1890ff" stroke-width="0.8" stroke-linecap="round" opacity="0.6"/>
</svg>